<svg width="124" height="140" viewBox="0 0 124 140" fill="none" xmlns="http://www.w3.org/2000/svg">
<path d="M11.429 113.272V115.048H4.157V120.688H10.061V122.464H4.157V130H1.973V113.272H11.429ZM16.2508 118.984C16.6348 118.232 17.1788 117.648 17.8828 117.232C18.6028 116.816 19.4748 116.608 20.4988 116.608V118.864H19.9228C17.4748 118.864 16.2508 120.192 16.2508 122.848V130H14.0668V116.848H16.2508V118.984ZM28.7559 130.216C27.5239 130.216 26.4039 129.936 25.3959 129.376C24.4039 128.816 23.6199 128.024 23.0439 127C22.4839 125.96 22.2039 124.76 22.2039 123.4C22.2039 122.056 22.4919 120.872 23.0679 119.848C23.6599 118.808 24.4599 118.016 25.4679 117.472C26.4759 116.912 27.6039 116.632 28.8519 116.632C30.0999 116.632 31.2279 116.912 32.2359 117.472C33.2439 118.016 34.0359 118.8 34.6119 119.824C35.2039 120.848 35.4999 122.04 35.4999 123.4C35.4999 124.76 35.1959 125.96 34.5879 127C33.9959 128.024 33.1879 128.816 32.1639 129.376C31.1399 129.936 30.0039 130.216 28.7559 130.216ZM28.7559 128.296C29.5399 128.296 30.2759 128.112 30.9639 127.744C31.6519 127.376 32.2039 126.824 32.6199 126.088C33.0519 125.352 33.2679 124.456 33.2679 123.4C33.2679 122.344 33.0599 121.448 32.6439 120.712C32.2279 119.976 31.6839 119.432 31.0119 119.08C30.3399 118.712 29.6119 118.528 28.8279 118.528C28.0279 118.528 27.2919 118.712 26.6199 119.08C25.9639 119.432 25.4359 119.976 25.0359 120.712C24.6359 121.448 24.4359 122.344 24.4359 123.4C24.4359 124.472 24.6279 125.376 25.0119 126.112C25.4119 126.848 25.9399 127.4 26.5959 127.768C27.2519 128.12 27.9719 128.296 28.7559 128.296ZM43.0274 130.216C42.0194 130.216 41.1154 130.048 40.3154 129.712C39.5154 129.36 38.8834 128.88 38.4194 128.272C37.9554 127.648 37.6994 126.936 37.6514 126.136H39.9074C39.9714 126.792 40.2754 127.328 40.8194 127.744C41.3794 128.16 42.1074 128.368 43.0034 128.368C43.8354 128.368 44.4914 128.184 44.9714 127.816C45.4514 127.448 45.6914 126.984 45.6914 126.424C45.6914 125.848 45.4354 125.424 44.9234 125.152C44.4114 124.864 43.6194 124.584 42.5474 124.312C41.5714 124.056 40.7714 123.8 40.1474 123.544C39.5394 123.272 39.0114 122.88 38.5634 122.368C38.1314 121.84 37.9154 121.152 37.9154 120.304C37.9154 119.632 38.1154 119.016 38.5154 118.456C38.9154 117.896 39.4834 117.456 40.2194 117.136C40.9554 116.8 41.7954 116.632 42.7394 116.632C44.1954 116.632 45.3714 117 46.2674 117.736C47.1634 118.472 47.6434 119.48 47.7074 120.76H45.5234C45.4754 120.072 45.1954 119.52 44.6834 119.104C44.1874 118.688 43.5154 118.48 42.6674 118.48C41.8834 118.48 41.2594 118.648 40.7954 118.984C40.3314 119.32 40.0994 119.76 40.0994 120.304C40.0994 120.736 40.2354 121.096 40.5074 121.384C40.7954 121.656 41.1474 121.88 41.5634 122.056C41.9954 122.216 42.5874 122.4 43.3394 122.608C44.2834 122.864 45.0514 123.12 45.6434 123.376C46.2354 123.616 46.7394 123.984 47.1554 124.48C47.5874 124.976 47.8114 125.624 47.8274 126.424C47.8274 127.144 47.6274 127.792 47.2274 128.368C46.8274 128.944 46.2594 129.4 45.5234 129.736C44.8034 130.056 43.9714 130.216 43.0274 130.216ZM53.5745 118.648V126.4C53.5745 127.04 53.7105 127.496 53.9825 127.768C54.2545 128.024 54.7265 128.152 55.3985 128.152H57.0065V130H55.0385C53.8225 130 52.9105 129.72 52.3025 129.16C51.6945 128.6 51.3905 127.68 51.3905 126.4V118.648H49.6865V116.848H51.3905V113.536H53.5745V116.848H57.0065V118.648H53.5745ZM70.9471 127.984L75.0271 116.848H77.3551L72.1951 130H69.6511L64.4911 116.848H66.8431L70.9471 127.984ZM78.6883 123.376C78.6883 122.032 78.9603 120.856 79.5043 119.848C80.0483 118.824 80.7923 118.032 81.7363 117.472C82.6963 116.912 83.7603 116.632 84.9283 116.632C86.0803 116.632 87.0803 116.88 87.9283 117.376C88.7763 117.872 89.4083 118.496 89.8243 119.248V116.848H92.0323V130H89.8243V127.552C89.3923 128.32 88.7443 128.96 87.8803 129.472C87.0323 129.968 86.0403 130.216 84.9043 130.216C83.7363 130.216 82.6803 129.928 81.7363 129.352C80.7923 128.776 80.0483 127.968 79.5043 126.928C78.9603 125.888 78.6883 124.704 78.6883 123.376ZM89.8243 123.4C89.8243 122.408 89.6243 121.544 89.2243 120.808C88.8243 120.072 88.2803 119.512 87.5923 119.128C86.9203 118.728 86.1763 118.528 85.3603 118.528C84.5443 118.528 83.8003 118.72 83.1283 119.104C82.4563 119.488 81.9203 120.048 81.5203 120.784C81.1203 121.52 80.9203 122.384 80.9203 123.376C80.9203 124.384 81.1203 125.264 81.5203 126.016C81.9203 126.752 82.4563 127.32 83.1283 127.72C83.8003 128.104 84.5443 128.296 85.3603 128.296C86.1763 128.296 86.9203 128.104 87.5923 127.72C88.2803 127.32 88.8243 126.752 89.2243 126.016C89.6243 125.264 89.8243 124.392 89.8243 123.4ZM107.387 116.848V130H105.203V128.056C104.787 128.728 104.203 129.256 103.451 129.64C102.715 130.008 101.899 130.192 101.003 130.192C99.979 130.192 99.059 129.984 98.243 129.568C97.427 129.136 96.779 128.496 96.299 127.648C95.835 126.8 95.603 125.768 95.603 124.552V116.848H97.763V124.264C97.763 125.56 98.091 126.56 98.747 127.264C99.403 127.952 100.299 128.296 101.435 128.296C102.603 128.296 103.523 127.936 104.195 127.216C104.867 126.496 105.203 125.448 105.203 124.072V116.848H107.387ZM113.259 112.24V130H111.075V112.24H113.259ZM119.645 118.648V126.4C119.645 127.04 119.781 127.496 120.053 127.768C120.325 128.024 120.797 128.152 121.469 128.152H123.077V130H121.109C119.893 130 118.981 129.72 118.373 129.16C117.765 128.6 117.461 127.68 117.461 126.4V118.648H115.757V116.848H117.461V113.536H119.645V116.848H123.077V118.648H119.645Z" fill="white"/>
<path d="M32.5 32L63.2377 8L94.4754 34.4594V82.2461" stroke="url(#paint0_linear_14_1023)" stroke-width="12.1311" stroke-linecap="square"/>
<path d="M30.7732 88.5724C28.9106 88.5724 27.3161 87.9092 25.9896 86.5828C24.6632 85.2564 24 83.6618 24 81.7992C24 79.9365 24.6632 78.342 25.9896 77.0156C27.3161 75.6892 28.9106 75.026 30.7732 75.026C32.6359 75.026 34.2304 75.6892 35.5568 77.0156C36.8832 78.342 37.5464 79.9365 37.5464 81.7992C37.5464 83.6618 36.8832 85.2564 35.5568 86.5828C34.2304 87.9092 32.6359 88.5724 30.7732 88.5724ZM71.4126 88.5724C71.4126 81.9685 70.1708 75.8021 67.6873 70.073C65.2038 64.344 61.8172 59.3347 57.5275 55.0449C53.2378 50.7552 48.2284 47.3686 42.4994 44.8851C36.7703 42.4016 30.6039 41.1598 24 41.1598V31C32.015 31 39.4938 32.4958 46.4363 35.4873C53.3789 38.4788 59.4748 42.5991 64.724 47.8484C69.9733 53.0976 74.0936 59.1935 77.0851 66.1361C80.0767 73.0787 81.5724 80.5574 81.5724 88.5724H71.4126ZM51.0929 88.5724C51.0929 84.7907 50.3874 81.2771 48.9763 78.0316C47.5652 74.7861 45.6179 71.9216 43.1344 69.438C40.6508 66.9545 37.7863 65.0072 34.5408 63.5961C31.2953 62.1851 27.7817 61.4795 24 61.4795V51.3197C29.1928 51.3197 34.0328 52.2933 38.5201 54.2406C43.0074 56.1879 46.9443 58.8549 50.3309 62.2415C53.7175 65.6281 56.3845 69.565 58.3318 74.0523C60.2791 78.5396 61.2527 83.3796 61.2527 88.5724H51.0929Z" fill="url(#paint1_linear_14_1023)"/>
<defs>
<linearGradient id="paint0_linear_14_1023" x1="31.6967" y1="7.85242" x2="92.8629" y2="83.9438" gradientUnits="userSpaceOnUse">
<stop stop-color="#B8ED55"/>
<stop offset="1" stop-color="#EDDE55"/>
</linearGradient>
<linearGradient id="paint1_linear_14_1023" x1="24.1516" y1="32.6174" x2="79.9549" y2="91.7567" gradientUnits="userSpaceOnUse">
<stop stop-color="#C1EB55"/>
<stop offset="1" stop-color="#EDDE55"/>
</linearGradient>
</defs>
</svg>